<svg width="1933" height="458" viewBox="0 0 1933 458" fill="none" xmlns="http://www.w3.org/2000/svg">
<g clip-path="url(#clip0_41_33)">
<path d="M325.275 115.422H255.622C250.439 115.422 246.238 119.606 246.238 124.768C246.238 129.929 250.439 134.113 255.622 134.113H325.275C330.457 134.113 334.659 129.929 334.659 124.768C334.659 119.606 330.457 115.422 325.275 115.422Z" fill="#7C4DFF"/>
<path d="M325.275 246.267H255.622C250.439 246.267 246.238 250.451 246.238 255.612C246.238 260.773 250.439 264.957 255.622 264.957H325.275C330.457 264.957 334.659 260.773 334.659 255.612C334.659 250.451 330.457 246.267 325.275 246.267Z" fill="#7C4DFF"/>
<path d="M309.21 141.589H223.478C218.295 141.589 214.094 145.773 214.094 150.934C214.094 156.095 218.295 160.279 223.478 160.279H309.21C314.392 160.279 318.594 156.095 318.594 150.934C318.594 145.773 314.392 141.589 309.21 141.589Z" fill="#7C4DFF"/>
<path d="M309.21 220.087H223.478C218.295 220.087 214.094 224.271 214.094 229.432C214.094 234.593 218.295 238.777 223.478 238.777H309.21C314.392 238.777 318.594 234.593 318.594 229.432C318.594 224.271 314.392 220.087 309.21 220.087Z" fill="#7C4DFF"/>
<path d="M291.786 167.754H195.34C190.157 167.754 185.955 171.938 185.955 177.099C185.955 182.26 190.157 186.444 195.34 186.444H291.786C296.969 186.444 301.17 182.26 301.17 177.099C301.17 171.938 296.969 167.754 291.786 167.754Z" fill="#7C4DFF"/>
<path d="M301.17 203.273C301.17 198.138 296.952 193.92 291.786 193.92H195.34C190.188 193.92 185.955 198.124 185.955 203.273C185.955 208.407 190.173 212.625 195.34 212.625H291.8C296.952 212.625 301.184 208.421 301.184 203.273H301.17Z" fill="#7C4DFF"/>
<path d="M388.246 324.738H318.594C313.411 324.738 309.21 328.921 309.21 334.083C309.21 339.244 313.411 343.428 318.594 343.428H388.246C393.429 343.428 397.631 339.244 397.631 334.083C397.631 328.921 393.429 324.738 388.246 324.738Z" fill="#7C4DFF"/>
<path d="M388.246 193.906H318.594C313.411 193.906 309.21 198.09 309.21 203.251C309.21 208.412 313.411 212.596 318.594 212.596H388.246C393.429 212.596 397.631 208.412 397.631 203.251C397.631 198.09 393.429 193.906 388.246 193.906Z" fill="#7C4DFF"/>
<path d="M420.39 298.571H334.659C329.507 298.571 325.275 302.775 325.275 307.924C325.275 313.058 329.492 317.276 334.659 317.276H420.39C425.542 317.276 429.774 313.072 429.774 307.924C429.774 302.789 425.557 298.571 420.39 298.571Z" fill="#7C4DFF"/>
<path d="M420.39 220.073H334.659C329.476 220.073 325.275 224.256 325.275 229.418C325.275 234.579 329.476 238.763 334.659 238.763H420.39C425.573 238.763 429.774 234.579 429.774 229.418C429.774 224.256 425.573 220.073 420.39 220.073Z" fill="#7C4DFF"/>
<path d="M448.529 272.405H352.068C346.916 272.405 342.684 276.609 342.684 281.757C342.684 286.892 346.902 291.11 352.068 291.11H448.529C453.681 291.11 457.913 286.906 457.913 281.757C457.913 276.623 453.695 272.405 448.529 272.405Z" fill="#7C4DFF"/>
<path d="M448.529 246.239H352.082C346.9 246.239 342.698 250.423 342.698 255.584C342.698 260.745 346.9 264.929 352.082 264.929H448.529C453.711 264.929 457.913 260.745 457.913 255.584C457.913 250.423 453.711 246.239 448.529 246.239Z" fill="#7C4DFF"/>
</g>
<path d="M1647.14 278.975V167.845H1674.92V210.986L1713.23 167.845H1744.98L1705.29 213.229L1747.4 278.975H1717.72L1688.04 231.003L1674.92 245.326V278.975H1647.14Z" fill="#253143"/>
<path d="M1599.42 280.701C1579.98 280.701 1565.14 275.754 1554.9 265.861C1544.77 255.852 1539.71 241.989 1539.71 224.273C1539.71 205.751 1544.66 191.429 1554.55 181.305C1564.56 171.182 1579.46 166.12 1599.25 166.12C1606.03 166.12 1612.07 166.637 1617.37 167.673C1622.77 168.708 1627.95 170.089 1632.9 171.814V196.145C1622.89 192.004 1612.36 189.933 1601.32 189.933C1589.81 189.933 1581.36 192.694 1575.95 198.216C1570.66 203.738 1568.01 212.424 1568.01 224.273C1568.01 235.547 1570.83 243.83 1576.47 249.122C1582.11 254.414 1590.5 257.06 1601.66 257.06C1607.07 257.06 1612.42 256.6 1617.71 255.679C1623 254.644 1628.12 253.091 1633.07 251.02V275.524C1628.24 277.135 1623.12 278.4 1617.71 279.32C1612.3 280.241 1606.21 280.701 1599.42 280.701Z" fill="#253143"/>
<path d="M1423.6 278.975L1466.05 167.845H1496.08L1538.53 278.975H1509.54L1499.53 253.781H1462.43L1452.59 278.975H1423.6ZM1466.23 233.246H1495.73L1480.89 194.592L1466.23 233.246Z" fill="#253143"/>
<path d="M1368.85 278.975V189.243H1336.23V167.845H1429.24V189.243H1396.63V278.975H1368.85Z" fill="#253143"/>
<path d="M1286.16 280.701C1278.8 280.701 1271.9 280.126 1265.45 278.975C1259.13 277.94 1253.66 276.387 1249.06 274.316V250.675C1254.12 252.861 1259.7 254.644 1265.8 256.024C1272.01 257.405 1277.88 258.095 1283.4 258.095C1290.3 258.095 1295.42 257.463 1298.76 256.197C1302.21 254.932 1303.93 252.171 1303.93 247.914C1303.93 245.038 1303.07 242.737 1301.35 241.012C1299.74 239.286 1297.03 237.79 1293.24 236.525C1289.55 235.144 1284.49 233.534 1278.05 231.693C1270.46 229.392 1264.42 226.862 1259.93 224.101C1255.45 221.224 1252.22 217.773 1250.27 213.747C1248.31 209.72 1247.33 204.774 1247.33 198.906C1247.33 188.323 1251.13 180.212 1258.72 174.575C1266.32 168.938 1277.53 166.12 1292.37 166.12C1298.82 166.12 1305.09 166.637 1311.18 167.673C1317.28 168.593 1322.23 169.686 1326.02 170.951V194.765C1321.08 192.809 1316.07 191.371 1311.01 190.451C1306.06 189.531 1301.23 189.07 1296.51 189.07C1290.3 189.07 1285.24 189.646 1281.33 190.796C1277.53 191.946 1275.63 194.592 1275.63 198.734C1275.63 201.15 1276.33 203.105 1277.71 204.601C1279.09 205.982 1281.44 207.247 1284.78 208.397C1288.23 209.548 1292.89 210.928 1298.76 212.539C1307.85 214.955 1314.81 217.888 1319.64 221.34C1324.47 224.676 1327.81 228.587 1329.65 233.074C1331.49 237.445 1332.41 242.392 1332.41 247.914C1332.41 257.693 1328.61 265.63 1321.02 271.728C1313.43 277.71 1301.81 280.701 1286.16 280.701Z" fill="#253143"/>
<path d="M1181.29 278.975V189.243H1148.67V167.845H1241.68V189.243H1209.07V278.975H1181.29Z" fill="#253143"/>
<path d="M1038.96 278.975V167.845H1062.77L1110.05 234.282V167.845H1138.01V278.975H1114.02L1066.74 212.711V278.975H1038.96Z" fill="#253143"/>
<path d="M943.747 278.975V167.845H1025.71V189.243H971.529V212.539H1019.33V234.282H971.529V257.578H1025.71V278.975H943.747Z" fill="#253143"/>
<path d="M870.876 278.975V189.243H838.262V167.845H931.272V189.243H898.658V278.975H870.876Z" fill="#253143"/>
<path d="M728.55 278.975V167.845H752.364L799.646 234.282V167.845H827.601V278.975H803.614L756.333 212.711V278.975H728.55Z" fill="#253143"/>
<path d="M658.99 280.701C640.928 280.701 627.181 276.099 617.748 266.896C608.314 257.693 603.598 243.37 603.598 223.928C603.598 203.336 608.314 188.553 617.748 179.58C627.181 170.606 640.928 166.12 658.99 166.12C677.051 166.12 690.799 170.606 700.232 179.58C709.666 188.553 714.382 203.336 714.382 223.928C714.382 243.37 709.666 257.693 700.232 266.896C690.799 276.099 677.051 280.701 658.99 280.701ZM658.99 257.06C668.308 257.06 675.096 254.414 679.352 249.122C683.724 243.715 685.91 235.317 685.91 223.928C685.91 211.504 683.724 202.76 679.352 197.699C675.096 192.522 668.308 189.933 658.99 189.933C649.557 189.933 642.654 192.522 638.282 197.699C634.026 202.76 631.898 211.504 631.898 223.928C631.898 235.317 634.026 243.715 638.282 249.122C642.654 254.414 649.557 257.06 658.99 257.06Z" fill="#253143"/>
<path d="M561.014 280.701C541.572 280.701 526.732 275.754 516.493 265.861C506.369 255.852 501.307 241.989 501.307 224.273C501.307 205.751 506.254 191.429 516.148 181.305C526.156 171.182 541.054 166.12 560.841 166.12C567.629 166.12 573.668 166.637 578.96 167.673C584.367 168.708 589.544 170.089 594.491 171.814V196.145C584.482 192.004 573.956 189.933 562.912 189.933C551.408 189.933 542.952 192.694 537.545 198.216C532.253 203.738 529.608 212.424 529.608 224.273C529.608 235.547 532.426 243.83 538.063 249.122C543.7 254.414 552.098 257.06 563.257 257.06C568.664 257.06 574.013 256.6 579.305 255.679C584.597 254.644 589.717 253.091 594.663 251.02V275.524C589.832 277.135 584.712 278.4 579.305 279.32C573.898 280.241 567.801 280.701 561.014 280.701Z" fill="#253143"/>
<defs>
<clipPath id="clip0_41_33">
<rect width="271.943" height="228.019" fill="white" transform="translate(185.955 115.423)"/>
</clipPath>
</defs>
</svg>
